<svg xmlns="http://www.w3.org/2000/svg" viewBox="0 0 80 72.33"><title>icon-tisi</title><g id="图层_2" data-name="图层 2"><g id="图层_1-2" data-name="图层 1"><path d="M40,0,0,72.33H80Z" style="fill:#f8ab17"/><polygon points="38.97 51.84 37.65 36.66 37.65 24.41 42.35 24.41 42.35 36.68 41.03 51.84 38.97 51.84" style="fill:#fff"/><path d="M42.14,24.63v12l-1.31,15H39.17L37.86,36.68v-12h4.28m.42-.43H37.44V36.68l1.33,15.37h2.46l1.33-15.37V24.2Z" style="fill:#babbbd"/><circle cx="40" cy="60.74" r="3.35" style="fill:#fff"/><path d="M40,57.6a3.14,3.14,0,0,1,0,6.28,3.14,3.14,0,0,1,0-6.28m0-.42a3.57,3.57,0,1,0,0,7.13,3.57,3.57,0,1,0,0-7.13Z" style="fill:#babbbd"/></g></g></svg>