<svg xmlns="http://www.w3.org/2000/svg" viewBox="0 0 42.3 50.04"><title>icon-sj</title><g id="图层_2" data-name="图层 2"><g id="图层_1-2" data-name="图层 1"><path d="M32.52,39.38,35,36.91V50H0V0H25.61L35,10.78v6.45a10.6,10.6,0,0,0-1.35.67,5.74,5.74,0,0,0-1.17.91V12.54H23.79v-10H2.52v45h30ZM5,20H25V17.52H5Zm0,3.75v2.46H25V23.79ZM5,30v2.52H17.52V30ZM40.9,20.68a4.83,4.83,0,0,1,0,6.8L27,41.48,16.76,44.82l3.4-10.13,13.94-14a4.83,4.83,0,0,1,6.8,0ZM21.8,37.62l-1.12,3.22,3.23-1.05Zm17.34-11.9a2.39,2.39,0,0,0,0-3.28,2.15,2.15,0,0,0-1.58-.64,2.34,2.34,0,0,0-1.64.64L23,35.33l3.22,3.22ZM26.25,10H31L26.25,4.57Z" style="fill:#fff"/></g></g></svg>