<svg xmlns="http://www.w3.org/2000/svg" viewBox="0 0 18.34 18.35"><title>icon-fd</title><g id="图层_2" data-name="图层 2"><g id="图层_1-2" data-name="图层 1"><path d="M17.75,15.28a1.92,1.92,0,0,1,.59,1.32,1.64,1.64,0,0,1-.49,1.28,1.62,1.62,0,0,1-.54.35,1.77,1.77,0,0,1-.64.12,1.91,1.91,0,0,1-.73-.15,2,2,0,0,1-.66-.45L8.74,11.24a6.32,6.32,0,0,1-1.32.5A5.76,5.76,0,0,1,6,11.92a5.63,5.63,0,0,1-2.32-.47,6,6,0,0,1-1.9-1.28A6,6,0,0,1,.47,8.29,5.87,5.87,0,0,1,0,6,5.8,5.8,0,0,1,.47,3.65,6,6,0,0,1,3.65.47,5.8,5.8,0,0,1,6,0,5.87,5.87,0,0,1,8.29.47a6,6,0,0,1,1.88,1.28,6,6,0,0,1,1.28,1.9A5.63,5.63,0,0,1,11.92,6a5.76,5.76,0,0,1-.17,1.45,5,5,0,0,1-.51,1.32ZM.92,6a5,5,0,0,0,.39,2,5.13,5.13,0,0,0,1.1,1.6A5.2,5.2,0,0,0,4,10.61,5,5,0,0,0,6,11a5,5,0,0,0,2-.39,5.07,5.07,0,0,0,2.68-2.68A5,5,0,0,0,11,6a5,5,0,0,0-.39-2A5.32,5.32,0,0,0,9.53,2.41a5.13,5.13,0,0,0-1.6-1.1A5,5,0,0,0,6,.92a5,5,0,0,0-2,.39,5.08,5.08,0,0,0-1.59,1.1A5.2,5.2,0,0,0,1.31,4,5,5,0,0,0,.92,6ZM17.21,17.21a.75.75,0,0,0,.19-.31,1.18,1.18,0,0,0,.05-.29,1.23,1.23,0,0,0-.12-.37,2.35,2.35,0,0,0-.23-.32L10.74,9.56a6.53,6.53,0,0,1-.56.62,6.53,6.53,0,0,1-.62.56l6.36,6.36a1.41,1.41,0,0,0,.32.24,1.21,1.21,0,0,0,.37.11,1.81,1.81,0,0,0,.29,0,.61.61,0,0,0,.31-.2Z" style="fill:#525f6b"/></g></g></svg>