<svg xmlns="http://www.w3.org/2000/svg" viewBox="0 0 16.92 20.02"><title>icon-sj2</title><g id="图层_2" data-name="图层 2"><g id="图层_1-2" data-name="图层 1"><path d="M13,15.75l1-1V20H0V0H10.24L14,4.31V6.89a4.53,4.53,0,0,0-.54.27,2.09,2.09,0,0,0-.47.36V5H9.52V1H1V19H13ZM2,8h8V7H2Zm0,1.5v1h8v-1ZM2,12v1H7V12ZM16.36,8.27a1.93,1.93,0,0,1,0,2.72l-5.58,5.6L6.7,17.93l1.36-4,5.58-5.61a1.93,1.93,0,0,1,2.72,0ZM8.72,15.05l-.45,1.29,1.29-.43Zm6.94-4.76a1,1,0,0,0,.25-.66A.91.91,0,0,0,15.66,9,.86.86,0,0,0,15,8.72a.88.88,0,0,0-.65.26L9.21,14.13l1.29,1.29ZM10.5,4h1.9L10.5,1.83Z" style="fill:#008ecf"/></g></g></svg>