<svg xmlns="http://www.w3.org/2000/svg" viewBox="0 0 323.84 119.52"><title>zeno-w</title><g id="图层_2" data-name="图层 2"><g id="图层_1-2" data-name="图层 1"><polygon points="92.57 35 92.57 14.8 148.37 14.8 148.37 3 79.17 3 79.17 35 92.57 35" style="fill:#fff"/><polygon points="92.57 55 79.17 55 79.17 87 148.37 87 148.37 75.19 92.57 75.19 92.57 55" style="fill:#fff"/><polygon points="36.77 35 57.47 35 73.43 18.04 73.45 3 1.78 3 1.78 18.04 52.83 18.04 36.77 35" style="fill:#fff"/><polygon points="38.64 55 17.83 55 1.78 71.96 1.78 87 73.45 87 73.45 71.96 22.67 71.96 38.64 55" style="fill:#fff"/><polygon points="163 35 162.94 16.28 177.8 35 188.92 35 163.63 3 154.09 3 154.09 35 163 35" style="fill:#fff"/><rect x="219.07" y="3" width="9.04" height="32" style="fill:#fff"/><polygon points="154.09 55 154.09 87 163.17 87 163.07 55 154.09 55" style="fill:#fff"/><polygon points="219.07 55 219.07 73.15 204.73 55 193.68 55 219.07 87 228.12 87 228.12 55 219.07 55" style="fill:#fff"/><path d="M278.84,0a45,45,0,0,0-44.71,40H223.26v1.5H205V40H1.78V50H205V48.5h18.31V50h10.87A45,45,0,1,0,278.84,0Zm0,80a35,35,0,1,1,35-35A35,35,0,0,1,278.84,80Z" style="fill:#fff;fill-rule:evenodd"/><text transform="translate(0 114.81)" style="font-size:18px;fill:#fff;font-family:MicrosoftYaHeiLight, Microsoft YaHei"><tspan style="letter-spacing:1.4000108506944444em">工业在线诊断平</tspan><tspan x="302.4" y="0">台</tspan></text></g></g></svg>