<svg xmlns="http://www.w3.org/2000/svg" viewBox="0 0 165 40.5"><title>menu1b</title><g id="图层_2" data-name="图层 2"><g id="图层_1-2" data-name="图层 1"><rect width="165" height="40" style="fill:#fff"/><line y1="40" x2="165" y2="40" style="fill:none;stroke:#008ecf;stroke-miterlimit:10"/><text transform="translate(32.5 26)" style="font-size:16px;fill:#008ecf;font-family:MicrosoftYaHeiLight, Microsoft YaHei"><tspan xml:space="preserve">诊  断</tspan></text><path d="M18.17,27a1.58,1.58,0,0,0-.27-.44l-4.45-4.42a3.86,3.86,0,0,0,.36-1.64,3.75,3.75,0,0,0-1.13-2.72A3.69,3.69,0,0,0,10,16.65a3.72,3.72,0,0,0-2.73,1.14,3.84,3.84,0,0,0,0,5.46A3.83,3.83,0,0,0,11.6,24L16,28.42a1.48,1.48,0,0,0,.43.29,1.21,1.21,0,0,0,.5.1,1.23,1.23,0,0,0,.49-.1,1.57,1.57,0,0,0,.45-.29,1.17,1.17,0,0,0,.27-.42,1.46,1.46,0,0,0,.09-.49A1.39,1.39,0,0,0,18.17,27ZM7.83,22.63A3,3,0,0,1,10,17.53a3,3,0,1,1-2.12,5.1Zm9.54,5a1.3,1.3,0,0,1-.1.15.42.42,0,0,1-.31.13.38.38,0,0,1-.3-.13l-4.3-4.29a4.15,4.15,0,0,0,.32-.27A4.47,4.47,0,0,0,13,22.9l4.3,4.3a.78.78,0,0,1,.1.15.47.47,0,0,1,0,.16A.42.42,0,0,1,17.37,27.66Z" style="fill:#008ecf"/><path d="M4.37,27.94V12.32h7.39V15.8h3v6.46l.88.88v-8l-3.27-3.74H3.5V28.81H15.19l-.87-.87ZM12.61,13l1.66,1.88H12.61Z" style="fill:#008ecf"/></g></g></svg>