<svg xmlns="http://www.w3.org/2000/svg" viewBox="0 0 165 40.5"><title>menu3a</title><g id="图层_2" data-name="图层 2"><g id="图层_1-2" data-name="图层 1"><rect width="165" height="40" style="fill:#fff"/><line y1="40" x2="165" y2="40" style="fill:none;stroke:#525f6b;stroke-miterlimit:10"/><text transform="translate(32.5 26)" style="font-size:16px;font-family:MicrosoftYaHeiLight, Microsoft YaHei">结果报告</text><path d="M3.17,13.34h.91V26.17H3.17ZM3.17,28h8.62c-.06-.14-.11-.29-.16-.44a3.45,3.45,0,0,1-.12-.46H3.17ZM5,13.34h.92V26.17H5Zm2.75,0V26.17H6.83V13.34Zm1.83,0V26.17H8.67V13.34Zm.92,0h.92V26.17H10.5Zm2.75,0h-.92V23.42a5.26,5.26,0,0,1,.44-.49c.15-.15.31-.29.48-.44Zm6.42,12.83A3.7,3.7,0,0,0,16,22.49a3.7,3.7,0,0,0-3.67,3.68,3.66,3.66,0,0,0,6.26,2.59A3.56,3.56,0,0,0,19.67,26.17ZM16,23.42v2.85h2.75a2.64,2.64,0,0,1-.84,1.88,2.67,2.67,0,0,1-1.91.77V26.27H13.25v-.1a2.66,2.66,0,0,1,.81-2A2.61,2.61,0,0,1,16,23.42ZM14.17,13.34V22l.44-.17a2.47,2.47,0,0,1,.47-.11V13.34Zm1.83,0v8.25l.46,0,.46.07V13.34Z"/></g></g></svg>