<svg xmlns="http://www.w3.org/2000/svg" viewBox="0 0 165 40.5"><title>menu4b</title><g id="图层_2" data-name="图层 2"><g id="图层_1-2" data-name="图层 1"><rect width="165" height="40" style="fill:#fff"/><line y1="40" x2="165" y2="40" style="fill:none;stroke:#008ecf;stroke-miterlimit:10"/><text transform="translate(32.5 26)" style="font-size:16px;fill:#008ecf;font-family:MicrosoftYaHeiLight, Microsoft YaHei">题库管理</text><path d="M3.17,11.49H17.83V17H3.17Zm0,11.93v-5.5H17.83v5.5Zm0,6.42v-5.5H17.83v5.5ZM16.92,12.42H4.08v3.67H16.92ZM4.08,18.84v3.65H16.92V18.84Zm0,6.4v3.68H16.92V25.24ZM5,14.72h.92v-.93H5Zm0,5.5v.9h.92v-.9Zm0,7.32h.92v-.92H5ZM6.83,13.79v.93h.92v-.93Zm0,6.43v.9h.92v-.9Zm0,6.4v.92h.92v-.92Z" style="fill:#008ecf"/></g></g></svg>