<svg xmlns="http://www.w3.org/2000/svg" viewBox="0 0 165 40.5"><title>menu5a</title><g id="图层_2" data-name="图层 2"><g id="图层_1-2" data-name="图层 1"><rect width="165" height="40" style="fill:#fff"/><line y1="40" x2="165" y2="40" style="fill:none;stroke:#525f6b;stroke-miterlimit:10"/><text transform="translate(32.5 26)" style="font-size:16px;font-family:MicrosoftYaHeiLight, Microsoft YaHei">试卷管理</text><path d="M16.92,29.84H4.08V11.49H16.92ZM5,28.92H16V12.42H5Zm5.5-12.83V17H5.92v-.9Zm0,3.2v.93H5.92v-.93Zm0,3.2v.93H5.92v-.93Zm2.3-4.83-1.25-1.25.65-.64.6.58,1.5-1.51.65.65Zm0,3.2-1.25-1.25L12.2,19l.6.58,1.5-1.5.65.64Zm0,3.2-1.25-1.25.65-.64.6.6,1.5-1.5.65.64Z"/></g></g></svg>