<svg xmlns="http://www.w3.org/2000/svg" viewBox="0 0 165 40.5"><title>menu6a</title><g id="图层_2" data-name="图层 2"><g id="图层_1-2" data-name="图层 1"><rect width="165" height="40" style="fill:#fff"/><line y1="40" x2="165" y2="40" style="fill:none;stroke:#525f6b;stroke-miterlimit:10"/><text transform="translate(32.5 26)" style="font-size:16px;font-family:MicrosoftYaHeiLight, Microsoft YaHei">用户管理</text><path d="M12.56,21.71a7,7,0,0,1,2.12,1,7.41,7.41,0,0,1,2.77,3.66,7.26,7.26,0,0,1,.38,2.37h-1a6.1,6.1,0,0,0-.5-2.45,6.24,6.24,0,0,0-1.37-2,6.62,6.62,0,0,0-2-1.36,6.47,6.47,0,0,0-4.94,0A6.62,6.62,0,0,0,6,24.3a6.24,6.24,0,0,0-1.37,2,6.1,6.1,0,0,0-.5,2.45h-1a7.26,7.26,0,0,1,.38-2.37,7.41,7.41,0,0,1,2.77-3.66,7,7,0,0,1,2.12-1,4.87,4.87,0,0,1-2-1.73,4.67,4.67,0,0,1-.77-2.61,4.75,4.75,0,0,1,.38-1.88,4.89,4.89,0,0,1,1-1.5,5,5,0,0,1,1.54-1,4.79,4.79,0,0,1,3.74,0,5,5,0,0,1,1.54,1,5.07,5.07,0,0,1,1,1.5,4.75,4.75,0,0,1,.38,1.88A4.67,4.67,0,0,1,14.55,20a4.87,4.87,0,0,1-2,1.73ZM7.82,20.05a3.66,3.66,0,0,0,2.68,1.11,3.66,3.66,0,0,0,2.68-1.11,3.77,3.77,0,0,0,0-5.36,3.63,3.63,0,0,0-2.68-1.12,3.63,3.63,0,0,0-2.68,1.12,3.77,3.77,0,0,0,0,5.36Z"/></g></g></svg>