<svg xmlns="http://www.w3.org/2000/svg" viewBox="0 0 165 40.5"><title>menu7b</title><g id="图层_2" data-name="图层 2"><g id="图层_1-2" data-name="图层 1"><rect width="165" height="40" style="fill:#fff"/><line y1="40" x2="165" y2="40" style="fill:none;stroke:#008ecf;stroke-miterlimit:10"/><text transform="translate(32.5 26)" style="font-size:16px;fill:#008ecf;font-family:MicrosoftYaHeiLight, Microsoft YaHei">联系我们</text><path d="M14.24,27.93a9.83,9.83,0,0,1-1-.09,8.41,8.41,0,0,1-1.75-.44,13.06,13.06,0,0,1-2.25-1.06,12.38,12.38,0,0,1-2.49-2,12,12,0,0,1-2.11-2.71,13.72,13.72,0,0,1-1.06-2.38,7.17,7.17,0,0,1-.37-1.74,7.25,7.25,0,0,1,0-.8,1.12,1.12,0,0,1,.09-.44,1.47,1.47,0,0,1,.24-.37L5,14.46a1.13,1.13,0,0,1,.36-.24,1.19,1.19,0,0,1,.45-.08,1,1,0,0,1,.44.08,1.36,1.36,0,0,1,.38.24l1.93,1.95a1.17,1.17,0,0,1,.26.38,1,1,0,0,1,.09.44,1.08,1.08,0,0,1-.09.44,1.17,1.17,0,0,1-.26.38L7.38,19.18a.29.29,0,0,0-.06.15v.05a6.12,6.12,0,0,0,.24.79A5.85,5.85,0,0,0,9,22.11,5.81,5.81,0,0,0,11,23.56a6.71,6.71,0,0,0,.77.22h0l.11,0,.06,0,1.12-1.14a.93.93,0,0,1,.38-.25,1.42,1.42,0,0,1,.88,0,.79.79,0,0,1,.37.25l2,2a1.08,1.08,0,0,1,.33.8,1.12,1.12,0,0,1-.33.81l-1.46,1.47a1.07,1.07,0,0,1-.35.23,1.08,1.08,0,0,1-.44.09h-.15ZM5.77,15.06H5.7a.19.19,0,0,0-.1,0L4.16,16.58s0,0,0,.05a.17.17,0,0,0,0,.1v0s0,.22,0,.62A6.26,6.26,0,0,0,4.44,19a12,12,0,0,0,1,2.22,11.3,11.3,0,0,0,2,2.52,11.21,11.21,0,0,0,2.56,2,12.19,12.19,0,0,0,2.21,1,6.2,6.2,0,0,0,1.57.32l.63,0h0s.07,0,.09,0l.06,0L16,25.5a.29.29,0,0,0,.06-.17.2.2,0,0,0-.06-.15l-2-2a.2.2,0,0,0-.15-.06.32.32,0,0,0-.17.06l-1.12,1.14a1.47,1.47,0,0,1-.37.24,1,1,0,0,1-.42.08,4.15,4.15,0,0,1-1.09-.23,6.61,6.61,0,0,1-2.35-1.72,6.48,6.48,0,0,1-1.7-2.34,4.19,4.19,0,0,1-.23-1.08,1.35,1.35,0,0,1,.08-.43,1.13,1.13,0,0,1,.24-.36l1.14-1.14a.22.22,0,0,0,0-.3l-2-2s0,0-.07,0Z" style="fill:#008ecf"/></g></g></svg>