<svg xmlns="http://www.w3.org/2000/svg" viewBox="0 0 10.8 13.5"><title>icon-del</title><g id="图层_2" data-name="图层 2"><g id="图层_1-2" data-name="图层 1"><path d="M10.12,3.37H.67V2h9.45Zm-1,8.78a.67.67,0,0,1-.67.67H2.36a.67.67,0,0,1-.67-.67V4.05H3V8.77h.67V4.05H5.06V8.77h.68V4.05H7.09V8.77h.67V4.05H9.11ZM4.05.67h2.7a.68.68,0,0,1,.67.68h-4A.69.69,0,0,1,4.05.67m6.75.68H8.1A1.36,1.36,0,0,0,6.75,0H4.05A1.36,1.36,0,0,0,2.7,1.35H0v2.7H1v8.1A1.36,1.36,0,0,0,2.36,13.5H8.44a1.36,1.36,0,0,0,1.35-1.35V4.05h1Z" style="fill:#008ecf"/></g></g></svg>