<?xml version="1.0" encoding="utf-8"?>
<!-- Generator: Adobe Illustrator 22.1.0, SVG Export Plug-In . SVG Version: 6.00 Build 0)  -->
<svg version="1.1" id="图层_1" xmlns="http://www.w3.org/2000/svg" xmlns:xlink="http://www.w3.org/1999/xlink" x="0px" y="0px"
	 viewBox="0 0 16 20" style="enable-background:new 0 0 16 20;" xml:space="preserve">
<title>password</title>
<g id="图层_2_1_">
	<g id="图层_1-2">
		<g>
			<g>
				<g>
					<path d="M13.5,7H16v13H0V7h2.5V5.5c0-0.7,0.1-1.5,0.4-2.1C3.5,2,4.5,1,5.9,0.5c1.4-0.6,2.9-0.6,4.3,0C11.5,1,12.5,2,13,3.4
						c0.3,0.7,0.5,1.4,0.5,2.1V7z M15,8H1v11h14V8z M3.5,7h9V5.5c0-2.5-2-4.5-4.4-4.5C8,1,8,1,8,1C5.5,1,3.5,3,3.5,5.4
						c0,0,0,0,0,0.1V7z M6.5,16.5v-2.7c-0.4-0.4-0.6-1-0.5-1.5c0-0.5,0.2-0.9,0.6-1.2c0.3-0.3,0.7-0.5,1.2-0.6c0.3,0,0.6,0,0.8,0.1
						c0.3,0.1,0.5,0.2,0.7,0.4s0.4,0.4,0.5,0.7C9.9,12,10,12.2,10,12.5c0,0.2,0,0.5-0.1,0.7s-0.2,0.4-0.4,0.6v2.7H6.5z M7,12.4
						c0,0.2,0,0.3,0.1,0.5c0.1,0.1,0.1,0.3,0.3,0.4l0.2,0.2v2.1h1v-2.1l0.2-0.2C8.9,13.2,9,13.1,9,13c0.1-0.3,0.1-0.6,0-0.8
						c-0.1-0.3-0.3-0.5-0.6-0.5c-0.1,0-0.3,0-0.4,0c-0.2,0-0.4,0.1-0.6,0.3C7.1,12,7,12.2,7,12.4L7,12.4z"/>
				</g>
			</g>
		</g>
	</g>
</g>
</svg>
