<?xml version="1.0" encoding="utf-8"?>
<!-- Generator: Adobe Illustrator 22.1.0, SVG Export Plug-In . SVG Version: 6.00 Build 0)  -->
<svg version="1.1" id="图层_1" xmlns="http://www.w3.org/2000/svg" xmlns:xlink="http://www.w3.org/1999/xlink" x="0px" y="0px"
	 viewBox="0 0 16 17.7" style="enable-background:new 0 0 16 17.7;" xml:space="preserve">
<title>user</title>
<g id="图层_2_1_">
	<g id="图层_1-2">
		<g>
			<g>
				<path d="M10.2,10c0.8,0.2,1.6,0.6,2.3,1.1c0.7,0.5,1.3,1.1,1.8,1.7c0.5,0.7,0.9,1.4,1.2,2.2c0.3,0.8,0.4,1.7,0.4,2.6h-1.1
					c0-0.9-0.2-1.8-0.5-2.7c-0.3-0.8-0.9-1.6-1.5-2.2c-0.6-0.6-1.4-1.1-2.2-1.5c-1.7-0.7-3.7-0.7-5.4,0c-0.8,0.3-1.6,0.8-2.2,1.5
					C2.5,13.4,2,14.1,1.6,15c-0.4,0.8-0.5,1.8-0.5,2.7H0c0-0.9,0.1-1.8,0.4-2.6c0.3-0.8,0.7-1.6,1.2-2.2c0.5-0.7,1.1-1.3,1.8-1.7
					c0.7-0.5,1.5-0.9,2.3-1.1C4.9,9.6,4.1,8.9,3.6,8.1C3,7.2,2.7,6.2,2.7,5.2c0-0.7,0.1-1.4,0.4-2C3.4,2.6,3.8,2,4.3,1.5
					C4.8,1.1,5.4,0.7,6,0.4c1.3-0.6,2.8-0.6,4.1,0c0.6,0.3,1.2,0.6,1.7,1.1c0.5,0.5,0.9,1,1.1,1.7c0.3,0.6,0.4,1.3,0.4,2
					c0,1-0.3,2-0.9,2.9C11.9,8.9,11.2,9.5,10.2,10L10.2,10z M5.1,8.2c1.6,1.6,4.2,1.6,5.9,0c0.8-0.8,1.2-1.8,1.2-2.9
					c0-1.1-0.4-2.2-1.2-2.9C10.2,1.5,9.1,1.1,8,1.1c-1.1,0-2.2,0.4-2.9,1.2C4.3,3.1,3.8,4.1,3.9,5.2C3.8,6.3,4.3,7.4,5.1,8.2z"/>
			</g>
		</g>
	</g>
</g>
</svg>
