<svg xmlns="http://www.w3.org/2000/svg" viewBox="0 0 39.48 46.7"><title>iocn-sj3</title><g id="图层_2" data-name="图层 2"><g id="图层_1-2" data-name="图层 1"><path d="M30.35,36.75l2.35-2.3V46.7H0V0H23.9l8.8,10.06v6a9.75,9.75,0,0,0-1.25.63,5.34,5.34,0,0,0-1.1.84V11.7H22.2V2.35H2.35v42h28ZM4.7,18.7H23.35V16.35H4.7Zm0,3.5v2.3H23.35V22.2Zm0,5.8v2.35H16.35V28Zm33.47-8.7a4.5,4.5,0,0,1,0,6.35l-13,13.07-9.52,3.12,3.17-9.46,13-13.08a4.49,4.49,0,0,1,6.34,0ZM20.34,35.11l-1,3,3-1ZM36.53,24a2.21,2.21,0,0,0,.6-1.53,2.17,2.17,0,0,0-.6-1.53,2,2,0,0,0-1.48-.61,2.22,2.22,0,0,0-1.53.61l-12,12,3,3ZM24.5,9.35h4.43L24.5,4.27Z" style="fill:#525f6b"/></g></g></svg>