<svg xmlns="http://www.w3.org/2000/svg" viewBox="0 0 14 17.5"><title>icon-del2</title><g id="图层_2" data-name="图层 2"><g id="图层_1-2" data-name="图层 1"><path d="M13.12,4.37H.87V2.63H13.12ZM11.81,15.75a.88.88,0,0,1-.87.88H3.06a.88.88,0,0,1-.87-.88V5.25H3.94v6.12h.87V5.25H6.56v6.12h.88V5.25H9.19v6.12h.87V5.25h1.75ZM5.25.87h3.5a.89.89,0,0,1,.88.88H4.37A.89.89,0,0,1,5.25.87M14,1.75H10.5A1.76,1.76,0,0,0,8.75,0H5.25A1.75,1.75,0,0,0,3.5,1.75H0v3.5H1.31v10.5A1.76,1.76,0,0,0,3.06,17.5h7.88a1.76,1.76,0,0,0,1.75-1.75V5.25H14Z" style="fill:#525f6b"/></g></g></svg>