<svg xmlns="http://www.w3.org/2000/svg" viewBox="0 0 17.34 17.34"><title>icon-bj</title><g id="图层_2" data-name="图层 2"><g id="图层_1-2" data-name="图层 1"><path d="M14.08,1.06a2.08,2.08,0,0,1,1.56.64,2.08,2.08,0,0,1,.64,1.56,2.08,2.08,0,0,1-.64,1.56L6.35,14.15,1.67,15.68,3.23,11,12.52,1.7a2.08,2.08,0,0,1,1.56-.64m0-1.06a3.18,3.18,0,0,0-2.31,1L2.31,10.46,0,17.34l6.92-2.27,9.47-9.5a3.18,3.18,0,0,0,.95-2.31A3.18,3.18,0,0,0,16.39,1,3.18,3.18,0,0,0,14.08,0Z" style="fill:#525f6b"/><path d="M14.12,2.77a.39.39,0,0,1,.29.09.53.53,0,0,1,.16.4.49.49,0,0,1-.12.36l-8,8-.69-.69,8-8a.55.55,0,0,1,.4-.16m0-1.06A1.59,1.59,0,0,0,13,2.15L4.26,10.9l2.18,2.19,8.75-8.71a1.63,1.63,0,0,0,0-2.23,1.46,1.46,0,0,0-1.07-.44Z" style="fill:#525f6b"/></g></g></svg>